<?xml version="1.0" standalone="no"?>
<!DOCTYPE svg PUBLIC "-//W3C//DTD SVG 20010904//EN"
 "http://www.w3.org/TR/2001/REC-SVG-20010904/DTD/svg10.dtd">
<svg version="1.0" xmlns="http://www.w3.org/2000/svg"
 width="500.000000pt" height="500.000000pt" viewBox="0 0 500.000000 500.000000"
 preserveAspectRatio="xMidYMid meet">

<g transform="translate(0.000000,500.000000) scale(0.100000,-0.100000)"
fill="#000000" stroke="none">
<path d="M2410 4716 c-49 -14 -400 -213 -400 -228 0 -11 100 -148 109 -148 3
0 65 34 136 76 181 106 204 116 246 116 21 0 52 -8 71 -18 18 -9 290 -166 603
-349 1152 -671 1047 -607 1072 -655 l23 -43 0 -966 c0 -1132 12 -1018 -121
-1098 -93 -56 -1461 -852 -1550 -902 -64 -36 -122 -41 -172 -14 -52 27 -1610
934 -1638 954 -61 43 -59 6 -59 1063 l0 963 23 43 c20 39 42 54 217 157 107
63 194 119 192 125 -4 14 -91 136 -102 143 -13 8 -380 -212 -421 -251 -20 -20
-50 -61 -65 -92 l-29 -57 0 -1035 0 -1035 28 -56 c15 -31 46 -74 70 -96 23
-21 350 -218 727 -437 377 -219 753 -438 836 -487 181 -107 250 -129 347 -111
68 13 106 31 276 131 105 62 333 195 1036 603 522 304 512 297 564 408 l26 55
0 1025 0 1025 -33 67 c-18 36 -49 81 -70 100 -20 18 -345 213 -722 432 -377
219 -754 439 -839 489 -198 115 -267 134 -381 103z"/>
<path d="M2964 3241 c-28 -5 -81 -18 -118 -31 -242 -80 -350 -306 -247 -515
59 -119 165 -189 425 -282 232 -82 286 -125 286 -226 0 -63 -28 -110 -84 -140
-55 -30 -216 -32 -288 -4 -65 25 -114 84 -128 153 l-11 54 -141 0 -141 0 6
-59 c23 -253 317 -429 654 -391 153 17 254 61 332 145 67 73 85 122 85 240 1
94 -1 105 -32 167 -62 126 -176 203 -424 289 -230 79 -288 123 -288 220 0 42
5 55 36 89 41 46 107 70 188 70 132 0 217 -62 235 -170 l6 -35 144 -3 144 -3
-7 58 c-18 167 -151 308 -337 359 -66 18 -226 26 -295 15z"/>
<path d="M2030 2713 c0 -334 -4 -532 -11 -556 -25 -90 -117 -146 -214 -131
-87 13 -131 60 -142 155 l-6 49 -143 0 -144 0 0 -30 c0 -16 5 -53 11 -82 43
-206 206 -321 454 -322 232 0 395 106 462 300 15 43 17 114 20 592 l4 542
-145 0 -146 0 0 -517z"/>
</g>
</svg>
